<svg xmlns="http://www.w3.org/2000/svg" viewBox="0 0 128 128">
  <defs>
    <radialGradient id="faceGlow" cx="50%" cy="35%" r="70%">
      <stop offset="0%" stop-color="#fff98b" />
      <stop offset="60%" stop-color="#ffd83b" />
      <stop offset="100%" stop-color="#ffb319" />
    </radialGradient>
    <linearGradient id="mouthFill" x1="0%" y1="0%" x2="0%" y2="100%">
      <stop offset="0%" stop-color="#5b1208" />
      <stop offset="100%" stop-color="#240302" />
    </linearGradient>
    <linearGradient id="tongueFill" x1="0%" y1="0%" x2="0%" y2="100%">
      <stop offset="0%" stop-color="#ff7267" />
      <stop offset="100%" stop-color="#c63d3d" />
    </linearGradient>
  </defs>

  <circle cx="64" cy="64" r="56" fill="#ffffff" opacity="0.9" />
  <circle cx="64" cy="64" r="51" fill="url(#faceGlow)" stroke="#f47a00" stroke-width="3" />
  <ellipse cx="46" cy="52" rx="8" ry="10" fill="#3c1608" />
  <ellipse cx="82" cy="52" rx="8" ry="10" fill="#3c1608" />
  <circle cx="48" cy="48" r="3.2" fill="#ffffff" />
  <circle cx="80" cy="48" r="3.2" fill="#ffffff" />
  <circle cx="54" cy="56" r="1.4" fill="#ffd07a" />
  <circle cx="86" cy="56" r="1.4" fill="#ffd07a" />
  <ellipse cx="35" cy="69" rx="7" ry="5.5" fill="#ff9b21" opacity="0.9" />
  <ellipse cx="93" cy="69" rx="7" ry="5.5" fill="#ff9b21" opacity="0.9" />
  <path d="M43 72c0-2.8 2.2-5 5-5h32c2.8 0 5 2.2 5 5v5c0 12.5-10.1 22-21 22S43 89.5 43 77z" fill="url(#mouthFill)" stroke="#4a1607" stroke-width="1.4" />
  <ellipse cx="64" cy="72.5" rx="16" ry="3.2" fill="#f5f5f5" />
  <path d="M52 86c3.4 6.2 8.2 9 12 9s8.6-2.8 12-9c-3.6-2-7.9-3.1-12-3.1S55.6 84 52 86z" fill="url(#tongueFill)" />
  <ellipse cx="53" cy="27" rx="7" ry="3.6" transform="rotate(-18 53 27)" fill="#fffde0" opacity="0.95" />
  <circle cx="39" cy="34" r="2.7" fill="#fffde0" opacity="0.95" />
  <circle cx="61" cy="24" r="1.7" fill="#fffde0" opacity="0.95" />
</svg>
